<svg xmlns="http://www.w3.org/2000/svg" xmlns:xlink="http://www.w3.org/1999/xlink" id="Layer_1" x="0px" y="0px" viewBox="0 0 1005.3 289" style="enable-background:new 0 0 1005.3 289;" xml:space="preserve"> <style type="text/css"> .st0{fill:#136293;} </style> <g> <path class="st0" d="M266.3,49.5c22-7.3,46-13.6,72.3-18.6c0,0-32-3-80.2,4.4c0,0-0.1,0-0.1,0c-4.1,0.6-8.3,1.3-12.5,2.1l-0.1-0.1 c-4.2,0.8-8.5,1.6-12.7,2.5C209,19.3,177.8,7,143.8,7C67.8,7,6.3,68.5,6.3,144.5S67.8,282,143.8,282s137.5-61.6,137.5-137.5 c0-33.9-12.2-64.8-32.5-88.8C254.4,53.5,260.5,51.4,266.3,49.5 M151.7,23.1c23.9,0,45.9,7.7,63.9,20.8c0,0,0,0,0,0 c-0.4,0.1-0.9,0.2-1.3,0.3s-0.8,0.2-1.3,0.3c-12.2,3.1-24.9,6.9-38.1,11.5c-14.7-13.5-28.3-24.3-38.5-31.9 C141.4,23.5,146.6,23.1,151.7,23.1 M42.8,129.3c1-40.4,24.2-75.5,57.8-93.4c13.2,11.7,25.6,23.5,36.9,35.2 C106.5,85.2,74.3,104.1,42.8,129.3 M171.8,239.4c-6.5,1.2-13.2,1.8-20,1.8c-21.4,0-41.3-6.2-58.1-16.8 c-20.7-13.1-24.7-41.7-8.5-60.2c16.6-19,41.6-42.7,77-65.6c28.4,34.6,45.8,67.3,47.2,94C210.4,215.3,194.1,235.2,171.8,239.4 M260.8,132.2c0,11.3-1.7,22.2-4.9,32.4c-13.7-32.9-35.9-62.3-58.5-86.3c8.6-4.4,17.6-8.7,27.1-12.9c0,0,0,0,0.1,0 c0.3-0.1,1.6-0.7,3.7-1.6c0.2-0.1,0.4-0.2,0.6-0.3c1.8-0.8,3.7-1.5,5.5-2.3c1.2-0.5,1.2-0.5,0,0 C250.9,80.4,260.8,105.2,260.8,132.2"></path> <g> <path class="st0" d="M925.6,162.4c0,10.2-8.3,18.5-18.5,18.5c-10.2,0-18.5-8.3-18.5-18.5c0-10.2,8.3-18.5,18.5-18.5 C917.3,143.8,925.6,152.1,925.6,162.4"></path> <g> <path class="st0" d="M563.5,68.2v153.9c0,3.4-2.8,6.2-6.2,6.2h-16.7c-3.4,0-6.2-2.8-6.2-6.2V68.2c0-3.4,2.8-6.2,6.2-6.2h16.7 C560.7,61.9,563.5,64.7,563.5,68.2"></path> <path class="st0" d="M799.4,85v137.1c0,3.4-2.8,6.2-6.2,6.2h-16.7c-3.4,0-6.2-2.8-6.2-6.2V103.3l-52.6,111.7 c-3.8,8.1-12,13.2-20.9,13.2s-17.1-5.2-20.9-13.2L621.1,98.5v123.6c0,3.4-2.8,6.2-6.2,6.2h-16.7c-3.4,0-6.2-2.8-6.2-6.2V85 c0-12.7,10.3-23.1,23.1-23.1h4c8.9,0,17.1,5.2,20.9,13.2l56.9,120.9l56.9-120.9c3.8-8.1,12-13.2,20.9-13.2h1.8 C789,61.9,799.4,72.3,799.4,85"></path> <path class="st0" d="M998.1,225.4c-1.1,1.8-3.1,2.9-5.3,2.9H976c-1.9,0-3.6-1.1-4.5-2.8l-64-136l-64,136 c-0.8,1.7-2.6,2.8-4.4,2.8h-16.6c-2,0-3.9-0.8-5.2-2.4c-1.5-1.9-1.8-4.4-0.8-6.5l67.9-144.2c3.8-8.1,12-13.2,20.9-13.2h4.4 c8.9,0,17.1,5.2,20.9,13.2l67.9,144.2C999.4,221.4,999.2,223.6,998.1,225.4"></path> <path class="st0" d="M509.2,216.9c1.9,2,2.4,4.8,1.3,7.3c-1.1,2.5-3.5,4.1-6.2,4.1H490c-2.3,0-4.6-1-6.2-2.7l-58.1-62.1 l-58.1,62.1c-1.6,1.7-3.9,2.7-6.2,2.7H347c-2.7,0-5.1-1.6-6.2-4.1c-1.1-2.5-0.6-5.3,1.3-7.3l66.8-71.3l-67.6-72.2 c-1.9-2-2.4-4.8-1.3-7.3c1.1-2.5,3.5-4.1,6.2-4.1h14.3c2.3,0,4.6,1,6.2,2.7l58.9,62.9l58.9-62.9c1.6-1.7,3.9-2.7,6.2-2.7h14.3 c2.7,0,5.1,1.6,6.2,4.1c1.1,2.5,0.6,5.3-1.3,7.3l-67.6,72.2L509.2,216.9L509.2,216.9z"></path> <path class="st0" d="M824.5,137.1L824.5,137.1c-0.2,0-0.5-0.1-0.7-0.2C824,137,824.3,137,824.5,137.1L824.5,137.1z"></path> </g> </g> </g> </svg>